<svg height="396.55519pt" viewBox="0 0 396.55519 396.55519" width="396.55519pt" xmlns="http://www.w3.org/2000/svg"><path d="m35.320312 388.554688c-4.246093.011718-8.316406-1.675782-11.304687-4.6875l-11.351563-11.3125c-6.230468-6.242188-6.230468-16.351563 0-22.597657l79.199219-79.199219c6.300781-6.167968 16.371094-6.167968 22.671875 0l11.28125 11.277344c6.21875 6.28125 6.21875 16.402344 0 22.679688l-79.203125 79.203125c-2.992187 2.988281-7.0625 4.660156-11.292969 4.636719zm0 0" fill="#78b9eb"/><g fill="#1a6fb0"><path d="m352.078125 44.476562c-58.207031-58.199218-152.179687-59.4375-211.902344-2.796874-59.722656 56.644531-63.457031 150.550781-8.417969 211.757812l-11.597656 11.597656c-9.371094-9.359375-24.550781-9.359375-33.921875 0l-79.199219 79.199219c-9.386718 9.390625-9.386718 24.613281 0 34l11.28125 11.28125c9.390626 9.386719 24.609376 9.386719 34 0l79.199219-79.199219c9.28125-9.402344 9.28125-24.519531 0-33.921875l11.597657-11.597656c61.207031 55.039063 155.113281 51.304687 211.757812-8.417969 56.640625-59.722656 55.402344-153.695312-2.796875-211.902344zm-231.917969 254.558594-79.199218 79.199219c-3.121094 3.105469-8.160157 3.105469-11.28125 0l-11.359376-11.359375c-3.101562-3.117188-3.101562-8.160156 0-11.277344l79.199219-79.203125c3.175781-3.039062 8.183594-3.039062 11.359375 0l11.28125 11.28125c3.09375 3.15625 3.09375 8.207031 0 11.359375zm220.640625-50.957031c-53.109375 53.113281-139.226562 53.117187-192.339843.007813-53.113282-53.113282-53.113282-139.226563 0-192.339844 53.113281-53.109375 139.230468-53.105469 192.339843.011718 53.039063 53.132813 53.039063 139.183594 0 192.320313zm0 0"/><path d="m329.480469 67.078125-11.3125 11.308594c40.542969 40.644531 40.542969 106.4375 0 147.082031l11.3125 11.3125c46.792969-46.890625 46.792969-122.816406 0-169.703125zm0 0"/></g></svg>